<mxfile host="app.diagrams.net" agent="Mozilla/5.0 (Windows NT 10.0; Win64; x64) AppleWebKit/537.36 (KHTML, like Gecko) Chrome/131.0.0.0 Safari/537.36" version="25.0.3">
  <diagram name="Seite-1" id="06Lyz3bGMCrr5AQnQPnJ">
    <mxGraphModel dx="1185" dy="632" grid="1" gridSize="10" guides="1" tooltips="1" connect="1" arrows="1" fold="1" page="1" pageScale="1" pageWidth="827" pageHeight="1169" math="0" shadow="0">
      <root>
        <mxCell id="0" />
        <mxCell id="1" parent="0" />
        <mxCell id="qrVqkozFbb9eaZflQ-VE-1" value="" style="rounded=0;whiteSpace=wrap;html=1;" vertex="1" parent="1">
          <mxGeometry x="190" y="380" width="110" height="110" as="geometry" />
        </mxCell>
        <mxCell id="qrVqkozFbb9eaZflQ-VE-2" value="" style="rounded=0;whiteSpace=wrap;html=1;" vertex="1" parent="1">
          <mxGeometry x="210" y="410" width="10" height="10" as="geometry" />
        </mxCell>
        <mxCell id="qrVqkozFbb9eaZflQ-VE-3" value="" style="rounded=0;whiteSpace=wrap;html=1;" vertex="1" parent="1">
          <mxGeometry x="230" y="410" width="10" height="10" as="geometry" />
        </mxCell>
        <mxCell id="qrVqkozFbb9eaZflQ-VE-4" value="" style="rounded=0;whiteSpace=wrap;html=1;" vertex="1" parent="1">
          <mxGeometry x="250" y="410" width="10" height="10" as="geometry" />
        </mxCell>
        <mxCell id="qrVqkozFbb9eaZflQ-VE-5" value="" style="rounded=0;whiteSpace=wrap;html=1;" vertex="1" parent="1">
          <mxGeometry x="270" y="410" width="10" height="10" as="geometry" />
        </mxCell>
        <mxCell id="qrVqkozFbb9eaZflQ-VE-6" value="" style="rounded=0;whiteSpace=wrap;html=1;" vertex="1" parent="1">
          <mxGeometry x="210" y="430" width="10" height="10" as="geometry" />
        </mxCell>
        <mxCell id="qrVqkozFbb9eaZflQ-VE-7" value="" style="rounded=0;whiteSpace=wrap;html=1;" vertex="1" parent="1">
          <mxGeometry x="230" y="430" width="10" height="10" as="geometry" />
        </mxCell>
        <mxCell id="qrVqkozFbb9eaZflQ-VE-8" value="" style="rounded=0;whiteSpace=wrap;html=1;" vertex="1" parent="1">
          <mxGeometry x="250" y="430" width="10" height="10" as="geometry" />
        </mxCell>
        <mxCell id="qrVqkozFbb9eaZflQ-VE-9" value="" style="rounded=0;whiteSpace=wrap;html=1;" vertex="1" parent="1">
          <mxGeometry x="270" y="430" width="10" height="10" as="geometry" />
        </mxCell>
        <mxCell id="qrVqkozFbb9eaZflQ-VE-10" value="" style="rounded=0;whiteSpace=wrap;html=1;" vertex="1" parent="1">
          <mxGeometry x="210" y="450" width="10" height="10" as="geometry" />
        </mxCell>
        <mxCell id="qrVqkozFbb9eaZflQ-VE-11" value="" style="rounded=0;whiteSpace=wrap;html=1;" vertex="1" parent="1">
          <mxGeometry x="230" y="450" width="10" height="10" as="geometry" />
        </mxCell>
        <mxCell id="qrVqkozFbb9eaZflQ-VE-12" value="" style="rounded=0;whiteSpace=wrap;html=1;" vertex="1" parent="1">
          <mxGeometry x="250" y="450" width="10" height="10" as="geometry" />
        </mxCell>
        <mxCell id="qrVqkozFbb9eaZflQ-VE-13" value="" style="rounded=0;whiteSpace=wrap;html=1;" vertex="1" parent="1">
          <mxGeometry x="270" y="450" width="10" height="10" as="geometry" />
        </mxCell>
        <mxCell id="qrVqkozFbb9eaZflQ-VE-14" value="" style="rounded=0;whiteSpace=wrap;html=1;" vertex="1" parent="1">
          <mxGeometry x="210" y="470" width="10" height="10" as="geometry" />
        </mxCell>
        <mxCell id="qrVqkozFbb9eaZflQ-VE-15" value="" style="rounded=0;whiteSpace=wrap;html=1;" vertex="1" parent="1">
          <mxGeometry x="230" y="470" width="10" height="10" as="geometry" />
        </mxCell>
        <mxCell id="qrVqkozFbb9eaZflQ-VE-16" value="" style="rounded=0;whiteSpace=wrap;html=1;" vertex="1" parent="1">
          <mxGeometry x="250" y="470" width="10" height="10" as="geometry" />
        </mxCell>
        <mxCell id="qrVqkozFbb9eaZflQ-VE-17" value="" style="rounded=0;whiteSpace=wrap;html=1;" vertex="1" parent="1">
          <mxGeometry x="270" y="470" width="10" height="10" as="geometry" />
        </mxCell>
        <mxCell id="qrVqkozFbb9eaZflQ-VE-19" value="&lt;font&gt;Tastatur-Modul&lt;/font&gt;" style="text;html=1;align=center;verticalAlign=middle;whiteSpace=wrap;rounded=0;" vertex="1" parent="1">
          <mxGeometry x="195" y="380" width="100" height="30" as="geometry" />
        </mxCell>
        <mxCell id="qrVqkozFbb9eaZflQ-VE-27" value="" style="endArrow=none;html=1;rounded=0;" edge="1" parent="1">
          <mxGeometry width="50" height="50" relative="1" as="geometry">
            <mxPoint x="170" y="445" as="sourcePoint" />
            <mxPoint x="170" y="425" as="targetPoint" />
          </mxGeometry>
        </mxCell>
        <mxCell id="qrVqkozFbb9eaZflQ-VE-28" value="" style="endArrow=none;html=1;rounded=0;" edge="1" parent="1">
          <mxGeometry width="50" height="50" relative="1" as="geometry">
            <mxPoint x="160" y="435" as="sourcePoint" />
            <mxPoint x="180" y="435" as="targetPoint" />
          </mxGeometry>
        </mxCell>
        <mxCell id="qrVqkozFbb9eaZflQ-VE-29" value="" style="rounded=0;whiteSpace=wrap;html=1;" vertex="1" parent="1">
          <mxGeometry x="340" y="380" width="110" height="110" as="geometry" />
        </mxCell>
        <mxCell id="qrVqkozFbb9eaZflQ-VE-30" value="" style="rounded=0;whiteSpace=wrap;html=1;" vertex="1" parent="1">
          <mxGeometry x="360" y="410" width="10" height="10" as="geometry" />
        </mxCell>
        <mxCell id="qrVqkozFbb9eaZflQ-VE-31" value="" style="rounded=0;whiteSpace=wrap;html=1;" vertex="1" parent="1">
          <mxGeometry x="380" y="410" width="10" height="10" as="geometry" />
        </mxCell>
        <mxCell id="qrVqkozFbb9eaZflQ-VE-32" value="" style="rounded=0;whiteSpace=wrap;html=1;" vertex="1" parent="1">
          <mxGeometry x="400" y="410" width="10" height="10" as="geometry" />
        </mxCell>
        <mxCell id="qrVqkozFbb9eaZflQ-VE-33" value="" style="rounded=0;whiteSpace=wrap;html=1;" vertex="1" parent="1">
          <mxGeometry x="420" y="410" width="10" height="10" as="geometry" />
        </mxCell>
        <mxCell id="qrVqkozFbb9eaZflQ-VE-34" value="" style="rounded=0;whiteSpace=wrap;html=1;" vertex="1" parent="1">
          <mxGeometry x="360" y="430" width="10" height="10" as="geometry" />
        </mxCell>
        <mxCell id="qrVqkozFbb9eaZflQ-VE-35" value="" style="rounded=0;whiteSpace=wrap;html=1;" vertex="1" parent="1">
          <mxGeometry x="380" y="430" width="10" height="10" as="geometry" />
        </mxCell>
        <mxCell id="qrVqkozFbb9eaZflQ-VE-36" value="" style="rounded=0;whiteSpace=wrap;html=1;" vertex="1" parent="1">
          <mxGeometry x="400" y="430" width="10" height="10" as="geometry" />
        </mxCell>
        <mxCell id="qrVqkozFbb9eaZflQ-VE-37" value="" style="rounded=0;whiteSpace=wrap;html=1;" vertex="1" parent="1">
          <mxGeometry x="420" y="430" width="10" height="10" as="geometry" />
        </mxCell>
        <mxCell id="qrVqkozFbb9eaZflQ-VE-38" value="" style="rounded=0;whiteSpace=wrap;html=1;" vertex="1" parent="1">
          <mxGeometry x="360" y="450" width="10" height="10" as="geometry" />
        </mxCell>
        <mxCell id="qrVqkozFbb9eaZflQ-VE-39" value="" style="rounded=0;whiteSpace=wrap;html=1;" vertex="1" parent="1">
          <mxGeometry x="380" y="450" width="10" height="10" as="geometry" />
        </mxCell>
        <mxCell id="qrVqkozFbb9eaZflQ-VE-40" value="" style="rounded=0;whiteSpace=wrap;html=1;" vertex="1" parent="1">
          <mxGeometry x="400" y="450" width="10" height="10" as="geometry" />
        </mxCell>
        <mxCell id="qrVqkozFbb9eaZflQ-VE-41" value="" style="rounded=0;whiteSpace=wrap;html=1;" vertex="1" parent="1">
          <mxGeometry x="420" y="450" width="10" height="10" as="geometry" />
        </mxCell>
        <mxCell id="qrVqkozFbb9eaZflQ-VE-42" value="" style="rounded=0;whiteSpace=wrap;html=1;" vertex="1" parent="1">
          <mxGeometry x="360" y="470" width="10" height="10" as="geometry" />
        </mxCell>
        <mxCell id="qrVqkozFbb9eaZflQ-VE-43" value="" style="rounded=0;whiteSpace=wrap;html=1;" vertex="1" parent="1">
          <mxGeometry x="380" y="470" width="10" height="10" as="geometry" />
        </mxCell>
        <mxCell id="qrVqkozFbb9eaZflQ-VE-44" value="" style="rounded=0;whiteSpace=wrap;html=1;" vertex="1" parent="1">
          <mxGeometry x="400" y="470" width="10" height="10" as="geometry" />
        </mxCell>
        <mxCell id="qrVqkozFbb9eaZflQ-VE-45" value="" style="rounded=0;whiteSpace=wrap;html=1;" vertex="1" parent="1">
          <mxGeometry x="420" y="470" width="10" height="10" as="geometry" />
        </mxCell>
        <mxCell id="qrVqkozFbb9eaZflQ-VE-46" value="&lt;font&gt;Tastatur-Modul&lt;/font&gt;" style="text;html=1;align=center;verticalAlign=middle;whiteSpace=wrap;rounded=0;" vertex="1" parent="1">
          <mxGeometry x="345" y="380" width="100" height="30" as="geometry" />
        </mxCell>
        <mxCell id="qrVqkozFbb9eaZflQ-VE-67" value="" style="rounded=0;whiteSpace=wrap;html=1;" vertex="1" parent="1">
          <mxGeometry x="190" y="530" width="110" height="110" as="geometry" />
        </mxCell>
        <mxCell id="qrVqkozFbb9eaZflQ-VE-68" value="" style="rounded=0;whiteSpace=wrap;html=1;" vertex="1" parent="1">
          <mxGeometry x="210" y="560" width="10" height="70" as="geometry" />
        </mxCell>
        <mxCell id="qrVqkozFbb9eaZflQ-VE-69" value="" style="rounded=0;whiteSpace=wrap;html=1;" vertex="1" parent="1">
          <mxGeometry x="230" y="560" width="10" height="10" as="geometry" />
        </mxCell>
        <mxCell id="qrVqkozFbb9eaZflQ-VE-73" value="" style="rounded=0;whiteSpace=wrap;html=1;" vertex="1" parent="1">
          <mxGeometry x="230" y="580" width="10" height="10" as="geometry" />
        </mxCell>
        <mxCell id="qrVqkozFbb9eaZflQ-VE-77" value="" style="rounded=0;whiteSpace=wrap;html=1;" vertex="1" parent="1">
          <mxGeometry x="230" y="600" width="10" height="10" as="geometry" />
        </mxCell>
        <mxCell id="qrVqkozFbb9eaZflQ-VE-78" value="" style="rounded=0;whiteSpace=wrap;html=1;" vertex="1" parent="1">
          <mxGeometry x="250" y="600" width="10" height="10" as="geometry" />
        </mxCell>
        <mxCell id="qrVqkozFbb9eaZflQ-VE-79" value="" style="rounded=0;whiteSpace=wrap;html=1;" vertex="1" parent="1">
          <mxGeometry x="270" y="600" width="10" height="10" as="geometry" />
        </mxCell>
        <mxCell id="qrVqkozFbb9eaZflQ-VE-84" value="&lt;font&gt;Audio-Modul&lt;/font&gt;" style="text;html=1;align=center;verticalAlign=middle;whiteSpace=wrap;rounded=0;" vertex="1" parent="1">
          <mxGeometry x="195" y="530" width="100" height="30" as="geometry" />
        </mxCell>
        <mxCell id="qrVqkozFbb9eaZflQ-VE-87" value="" style="ellipse;whiteSpace=wrap;html=1;aspect=fixed;" vertex="1" parent="1">
          <mxGeometry x="250" y="560" width="30" height="30" as="geometry" />
        </mxCell>
        <mxCell id="qrVqkozFbb9eaZflQ-VE-88" value="" style="rounded=0;whiteSpace=wrap;html=1;" vertex="1" parent="1">
          <mxGeometry x="230" y="620" width="50" height="10" as="geometry" />
        </mxCell>
        <mxCell id="qrVqkozFbb9eaZflQ-VE-92" value="" style="endArrow=none;dashed=1;html=1;rounded=0;entryX=-0.007;entryY=0.539;entryDx=0;entryDy=0;entryPerimeter=0;" edge="1" parent="1" target="qrVqkozFbb9eaZflQ-VE-29">
          <mxGeometry width="50" height="50" relative="1" as="geometry">
            <mxPoint x="300" y="439.67" as="sourcePoint" />
            <mxPoint x="335" y="439.67" as="targetPoint" />
          </mxGeometry>
        </mxCell>
        <mxCell id="qrVqkozFbb9eaZflQ-VE-93" value="" style="endArrow=none;dashed=1;html=1;rounded=0;exitX=0.45;exitY=0;exitDx=0;exitDy=0;exitPerimeter=0;" edge="1" parent="1">
          <mxGeometry width="50" height="50" relative="1" as="geometry">
            <mxPoint x="244.9" y="530" as="sourcePoint" />
            <mxPoint x="244.9" y="490" as="targetPoint" />
            <Array as="points">
              <mxPoint x="244.9" y="510" />
            </Array>
          </mxGeometry>
        </mxCell>
        <mxCell id="qrVqkozFbb9eaZflQ-VE-95" value="" style="endArrow=none;html=1;rounded=0;" edge="1" parent="1">
          <mxGeometry width="50" height="50" relative="1" as="geometry">
            <mxPoint x="470" y="445" as="sourcePoint" />
            <mxPoint x="470" y="425" as="targetPoint" />
          </mxGeometry>
        </mxCell>
        <mxCell id="qrVqkozFbb9eaZflQ-VE-96" value="" style="endArrow=none;html=1;rounded=0;" edge="1" parent="1">
          <mxGeometry width="50" height="50" relative="1" as="geometry">
            <mxPoint x="460" y="435" as="sourcePoint" />
            <mxPoint x="480" y="435" as="targetPoint" />
          </mxGeometry>
        </mxCell>
        <mxCell id="qrVqkozFbb9eaZflQ-VE-97" value="" style="endArrow=none;html=1;rounded=0;" edge="1" parent="1">
          <mxGeometry width="50" height="50" relative="1" as="geometry">
            <mxPoint x="395" y="520" as="sourcePoint" />
            <mxPoint x="395" y="500" as="targetPoint" />
          </mxGeometry>
        </mxCell>
        <mxCell id="qrVqkozFbb9eaZflQ-VE-98" value="" style="endArrow=none;html=1;rounded=0;" edge="1" parent="1">
          <mxGeometry width="50" height="50" relative="1" as="geometry">
            <mxPoint x="385" y="510" as="sourcePoint" />
            <mxPoint x="405" y="510" as="targetPoint" />
          </mxGeometry>
        </mxCell>
        <mxCell id="qrVqkozFbb9eaZflQ-VE-99" value="" style="endArrow=none;html=1;rounded=0;" edge="1" parent="1">
          <mxGeometry width="50" height="50" relative="1" as="geometry">
            <mxPoint x="395" y="370" as="sourcePoint" />
            <mxPoint x="395" y="350" as="targetPoint" />
          </mxGeometry>
        </mxCell>
        <mxCell id="qrVqkozFbb9eaZflQ-VE-100" value="" style="endArrow=none;html=1;rounded=0;" edge="1" parent="1">
          <mxGeometry width="50" height="50" relative="1" as="geometry">
            <mxPoint x="385" y="360" as="sourcePoint" />
            <mxPoint x="405" y="360" as="targetPoint" />
          </mxGeometry>
        </mxCell>
        <mxCell id="qrVqkozFbb9eaZflQ-VE-101" value="" style="endArrow=none;html=1;rounded=0;" edge="1" parent="1">
          <mxGeometry width="50" height="50" relative="1" as="geometry">
            <mxPoint x="320" y="595" as="sourcePoint" />
            <mxPoint x="320" y="575" as="targetPoint" />
          </mxGeometry>
        </mxCell>
        <mxCell id="qrVqkozFbb9eaZflQ-VE-102" value="" style="endArrow=none;html=1;rounded=0;" edge="1" parent="1">
          <mxGeometry width="50" height="50" relative="1" as="geometry">
            <mxPoint x="310" y="585" as="sourcePoint" />
            <mxPoint x="330" y="585" as="targetPoint" />
          </mxGeometry>
        </mxCell>
        <mxCell id="qrVqkozFbb9eaZflQ-VE-103" value="" style="endArrow=none;html=1;rounded=0;" edge="1" parent="1">
          <mxGeometry width="50" height="50" relative="1" as="geometry">
            <mxPoint x="170" y="595" as="sourcePoint" />
            <mxPoint x="170" y="575" as="targetPoint" />
          </mxGeometry>
        </mxCell>
        <mxCell id="qrVqkozFbb9eaZflQ-VE-104" value="" style="endArrow=none;html=1;rounded=0;" edge="1" parent="1">
          <mxGeometry width="50" height="50" relative="1" as="geometry">
            <mxPoint x="160" y="585" as="sourcePoint" />
            <mxPoint x="180" y="585" as="targetPoint" />
          </mxGeometry>
        </mxCell>
        <mxCell id="qrVqkozFbb9eaZflQ-VE-136" value="" style="endArrow=none;html=1;rounded=0;" edge="1" parent="1">
          <mxGeometry width="50" height="50" relative="1" as="geometry">
            <mxPoint x="245" y="670" as="sourcePoint" />
            <mxPoint x="245" y="650" as="targetPoint" />
          </mxGeometry>
        </mxCell>
        <mxCell id="qrVqkozFbb9eaZflQ-VE-137" value="" style="endArrow=none;html=1;rounded=0;" edge="1" parent="1">
          <mxGeometry width="50" height="50" relative="1" as="geometry">
            <mxPoint x="235" y="660" as="sourcePoint" />
            <mxPoint x="255" y="660" as="targetPoint" />
          </mxGeometry>
        </mxCell>
        <mxCell id="qrVqkozFbb9eaZflQ-VE-139" value="Hauptmodul&lt;br&gt;(Mikrocontroller)" style="rounded=0;whiteSpace=wrap;html=1;" vertex="1" parent="1">
          <mxGeometry x="190" y="320" width="110" height="40" as="geometry" />
        </mxCell>
        <mxCell id="qrVqkozFbb9eaZflQ-VE-141" value="" style="endArrow=none;dashed=1;html=1;dashPattern=1 3;strokeWidth=2;rounded=0;" edge="1" parent="1">
          <mxGeometry width="50" height="50" relative="1" as="geometry">
            <mxPoint x="245" y="374" as="sourcePoint" />
            <mxPoint x="245" y="360" as="targetPoint" />
          </mxGeometry>
        </mxCell>
        <mxCell id="qrVqkozFbb9eaZflQ-VE-142" value="" style="endArrow=none;html=1;rounded=0;" edge="1" parent="1">
          <mxGeometry width="50" height="50" relative="1" as="geometry">
            <mxPoint x="245" y="320" as="sourcePoint" />
            <mxPoint x="245" y="280" as="targetPoint" />
          </mxGeometry>
        </mxCell>
        <mxCell id="qrVqkozFbb9eaZflQ-VE-144" value="&lt;font style=&quot;font-size: 10px;&quot;&gt;USB zum Computer&lt;/font&gt;" style="text;html=1;align=center;verticalAlign=middle;whiteSpace=wrap;rounded=0;" vertex="1" parent="1">
          <mxGeometry x="217.5" y="250" width="55" height="25" as="geometry" />
        </mxCell>
      </root>
    </mxGraphModel>
  </diagram>
</mxfile>
